<?xml version="1.0" standalone="no"?>
<!DOCTYPE svg PUBLIC "-//W3C//DTD SVG 20010904//EN"
 "http://www.w3.org/TR/2001/REC-SVG-20010904/DTD/svg10.dtd">
<svg version="1.0" xmlns="http://www.w3.org/2000/svg"
 width="682.000000pt" height="1280.000000pt" viewBox="0 0 682.000000 1280.000000"
 preserveAspectRatio="xMidYMid meet">
<metadata>
Created by potrace 1.15, written by Peter Selinger 2001-2017
</metadata>
<g transform="translate(0.000000,1280.000000) scale(0.100000,-0.100000)"
fill="#000000" stroke="none">
<path d="M2973 12784 c-45 -22 -69 -58 -152 -221 -188 -372 -538 -883 -745
-1088 -95 -94 -110 -105 -246 -174 -202 -103 -246 -133 -269 -187 -11 -24 -58
-99 -104 -166 -133 -194 -190 -327 -208 -486 -19 -172 -30 -225 -59 -293 -68
-160 -182 -300 -372 -457 -74 -60 -154 -134 -179 -163 -171 -200 -228 -401
-229 -804 -1 -345 -28 -708 -70 -926 -12 -63 -36 -137 -69 -210 -74 -171 -179
-467 -216 -614 -41 -161 -55 -274 -55 -435 1 -342 70 -1396 116 -1750 48 -379
299 -1114 515 -1510 89 -164 129 -266 154 -390 9 -47 24 -119 32 -160 48 -239
239 -495 763 -1020 281 -282 468 -449 673 -603 238 -179 444 -373 922 -868
127 -131 195 -193 231 -212 100 -52 302 -61 414 -18 115 43 175 108 285 306
106 190 186 304 270 384 212 202 697 506 891 559 150 42 223 99 574 451 572
572 684 752 829 1318 84 330 86 343 85 528 -1 198 -35 447 -108 791 -9 39 -22
142 -29 230 -16 178 -36 241 -115 363 -83 127 -128 327 -119 529 7 180 48 281
244 607 166 276 201 374 190 517 -8 89 -31 139 -121 257 -107 138 -149 185
-203 220 -63 42 -97 50 -265 60 -154 10 -193 19 -200 48 -2 10 3 97 13 193 49
492 35 676 -83 1055 -98 320 -101 332 -103 585 -2 241 -5 263 -60 356 -38 64
-141 152 -261 223 -227 132 -303 189 -455 341 -90 89 -182 194 -240 272 -202
271 -214 305 -239 672 -16 232 -17 237 -109 342 -43 49 -220 228 -395 399
-428 417 -517 520 -657 755 -195 329 -343 454 -466 394z m81 -216 c15 -25 -15
-73 -46 -73 -19 0 -24 6 -26 33 -2 18 2 40 9 48 15 19 49 14 63 -8z m131 -322
c29 -12 35 -20 35 -44 0 -46 -20 -55 -153 -64 -67 -5 -147 -15 -176 -23 -64
-17 -84 -8 -75 34 13 51 59 82 159 104 48 11 178 6 210 -7z m282 -299 c37 -20
52 -59 32 -83 -43 -52 -148 -75 -494 -109 -195 -19 -288 -31 -382 -51 -82 -18
-113 -9 -113 31 0 38 46 83 123 119 107 50 196 71 472 110 17 2 98 3 180 2
120 -1 156 -5 182 -19z m194 -349 c52 -31 161 -92 242 -137 185 -101 278 -164
363 -244 103 -95 106 -106 115 -398 8 -243 24 -384 54 -486 25 -83 126 -223
264 -366 158 -163 262 -248 405 -328 90 -51 129 -80 207 -158 66 -66 104 -114
125 -156 l29 -60 1 -350 c1 -402 -4 -375 114 -680 34 -88 73 -203 87 -255 58
-228 46 -669 -22 -799 -22 -44 -71 -79 -119 -86 -52 -8 -149 10 -166 30 -16
19 -1 127 47 335 49 211 49 271 1 415 -47 139 -63 205 -82 330 -27 175 -36
290 -36 452 0 182 9 249 45 338 65 162 8 304 -140 345 -49 14 -165 9 -226 -9
-79 -24 -138 -86 -124 -131 4 -11 31 -44 61 -74 30 -29 54 -60 54 -68 0 -36
-61 -62 -170 -73 -116 -12 -150 -42 -150 -129 0 -54 16 -70 100 -91 121 -31
145 -57 182 -191 18 -68 20 -102 18 -244 -5 -356 -7 -335 34 -440 108 -274
213 -627 231 -772 7 -56 7 -56 -33 -95 -96 -92 -332 -203 -526 -246 l-108 -25
6 37 c3 20 17 126 30 236 69 542 64 630 -45 888 -81 189 -114 294 -129 402
-12 95 -7 151 36 370 26 129 26 478 1 585 -20 85 -63 183 -97 218 -50 52 -114
49 -220 -10 -140 -78 -146 -90 -125 -296 20 -201 15 -217 -104 -316 -152 -126
-144 -177 34 -222 125 -32 145 -67 205 -364 23 -111 55 -261 72 -333 29 -119
32 -148 32 -292 1 -153 2 -163 29 -219 32 -69 34 -98 8 -140 -34 -54 -41 -112
-51 -376 -5 -140 -14 -278 -20 -306 -17 -77 -64 -162 -223 -402 -136 -204
-191 -272 -221 -272 -6 0 -39 28 -73 63 -97 97 -98 100 -97 447 2 322 16 477
54 565 64 149 43 411 -49 610 -21 44 -56 102 -80 128 -52 61 -75 106 -101 198
-29 104 -61 338 -61 444 -1 107 9 138 109 345 85 178 129 308 142 423 6 63 17
102 36 137 23 42 25 52 14 66 -33 39 -216 111 -310 120 -109 12 -193 -36 -244
-139 -33 -65 -33 -85 4 -185 57 -155 48 -288 -25 -399 -77 -116 -71 -181 55
-583 33 -106 68 -230 77 -277 17 -89 14 -129 -22 -293 -19 -84 -19 -137 0
-191 22 -62 35 -299 33 -599 -2 -344 -2 -346 186 -748 108 -230 139 -326 140
-432 1 -73 -3 -93 -26 -141 -30 -60 -125 -179 -171 -213 -40 -30 -111 -26
-238 14 -246 76 -291 121 -462 458 l-86 169 30 339 c49 569 60 722 61 904 1
195 -12 264 -58 319 -39 46 -85 55 -264 47 -85 -4 -156 -8 -157 -10 -2 -2 2
-86 8 -187 18 -289 15 -836 -6 -1090 -9 -119 -15 -261 -13 -315 3 -87 7 -107
36 -169 18 -38 62 -113 97 -165 210 -315 470 -503 732 -529 94 -10 119 -24
110 -63 -10 -39 -159 -211 -337 -390 -140 -141 -171 -168 -196 -168 -44 0
-269 71 -454 143 -98 38 -110 45 -186 121 -143 144 -315 432 -382 641 -60 184
-106 456 -124 731 -14 221 -8 262 58 355 63 89 85 167 91 317 8 183 -9 288
-90 552 -44 144 -59 247 -46 315 13 67 35 308 54 590 31 452 59 635 132 859
57 176 64 252 34 350 -25 81 -27 141 -6 221 23 85 69 165 144 247 87 96 114
144 160 285 41 128 57 163 107 235 45 67 61 162 46 284 -16 129 -49 196 -112
229 -45 23 -65 18 -103 -25 -59 -64 -106 -239 -142 -530 -28 -222 -77 -387
-167 -562 -82 -161 -141 -227 -251 -284 -63 -33 -127 -91 -144 -132 -10 -25
-12 -58 -7 -136 8 -124 2 -146 -71 -250 -82 -119 -84 -160 -9 -232 49 -48 74
-117 95 -256 16 -104 16 -555 1 -728 -7 -69 -21 -253 -32 -410 -33 -466 -49
-646 -72 -815 -30 -213 -32 -697 -5 -963 28 -278 68 -398 203 -622 196 -325
464 -606 704 -738 149 -83 170 -125 91 -182 -39 -27 -89 -45 -251 -87 -179
-46 -266 -52 -341 -24 -190 72 -366 270 -514 576 -76 157 -134 314 -219 597
-36 117 -79 251 -96 298 -18 47 -40 108 -50 135 -63 174 -50 755 31 1385 55
432 96 640 192 977 l62 218 -1 165 c-1 147 -4 176 -28 264 -15 55 -45 143 -68
195 -61 145 -116 308 -127 380 -13 79 3 161 50 254 80 157 159 242 284 302
176 84 344 261 449 472 49 97 66 155 77 258 15 150 115 519 170 626 28 57 92
104 234 175 207 102 507 195 989 304 76 17 218 53 315 80 231 65 254 65 382
-12z m-2866 -3125 c14 -14 16 -31 13 -102 -4 -67 -21 -140 -76 -331 -38 -135
-89 -290 -112 -345 -92 -220 -109 -271 -120 -366 -7 -52 -23 -125 -37 -164
-39 -109 -40 -146 -7 -218 27 -58 29 -69 28 -187 -1 -69 -12 -215 -25 -325
-20 -174 -24 -247 -24 -560 0 -383 7 -481 51 -705 29 -149 55 -231 101 -323
18 -37 45 -109 60 -160 66 -232 311 -712 425 -833 116 -123 316 -184 604 -184
145 0 239 12 286 36 15 8 46 34 69 59 48 51 65 55 81 20 12 -26 10 -41 -23
-229 -16 -88 -3 -194 45 -391 64 -259 96 -478 96 -650 0 -55 5 -161 10 -235
27 -364 102 -558 300 -775 206 -226 377 -442 419 -528 18 -37 20 -50 11 -66
-17 -34 -46 -25 -110 34 -32 30 -72 57 -87 60 -58 13 -72 24 -83 64 -26 96
-344 336 -505 380 -57 16 -104 47 -123 83 -34 62 -65 88 -125 103 -67 17 -100
37 -128 77 -16 23 -18 32 -9 43 15 18 7 29 -97 144 -173 189 -261 303 -297
384 -27 61 -78 123 -125 150 -31 18 -31 18 -40 -5 -30 -78 -28 -77 -35 -8 -17
147 -64 292 -131 395 -43 68 -71 74 -80 18 -13 -74 -28 -82 -65 -36 -19 24
-21 37 -17 92 9 117 126 312 223 372 20 12 129 48 242 80 208 60 312 99 312
119 0 23 -57 32 -175 27 -137 -5 -190 -21 -365 -106 -165 -80 -285 -101 -360
-63 -27 13 -37 27 -47 60 -14 49 -51 117 -139 252 -120 186 -168 307 -259 648
-102 384 -111 481 -125 1412 -10 652 -21 938 -40 1121 -14 127 -1 187 83 394
36 88 102 268 147 400 57 169 106 290 165 410 64 130 88 193 105 265 29 131
49 188 68 200 23 13 28 12 47 -7z m-225 -139 c18 -46 10 -204 -10 -204 -14 0
-40 92 -40 142 0 78 30 115 50 62z m5899 -1524 c21 -10 53 -36 71 -56 125
-143 90 -317 -155 -748 -162 -286 -180 -343 -179 -556 0 -179 15 -270 75 -459
47 -148 72 -284 93 -516 27 -290 58 -830 59 -1045 2 -234 -5 -270 -89 -466
-172 -404 -406 -756 -699 -1049 -205 -206 -384 -345 -675 -525 -322 -198 -586
-406 -841 -660 -173 -173 -223 -236 -241 -308 -14 -58 -99 -149 -177 -190
-101 -55 -196 -55 -250 -2 -25 25 -34 51 -60 163 -17 72 -40 188 -51 257 -58
354 -113 448 -404 698 -186 160 -243 221 -289 306 -21 40 -48 71 -85 98 -78
57 -82 75 -92 322 -9 223 -19 291 -51 342 -25 41 -24 73 5 172 64 213 57 456
-20 737 -22 80 -28 121 -28 205 0 210 66 320 381 641 117 119 213 221 213 227
0 6 75 88 166 184 469 489 696 795 737 996 17 83 39 117 107 167 69 51 91 90
101 187 5 45 18 101 29 126 28 62 128 155 251 231 136 85 456 247 589 299 309
120 682 197 1125 231 77 6 156 13 175 15 68 8 171 -4 209 -24z"/>
<path d="M3883 11180 c-27 -11 -29 -35 -8 -105 9 -27 31 -133 51 -235 65 -344
99 -462 185 -635 90 -183 237 -379 328 -436 56 -36 88 -37 102 -5 16 34 -7 89
-104 249 -96 160 -114 196 -161 315 -49 124 -85 267 -97 385 -6 61 -21 130
-41 185 -81 230 -162 319 -255 282z"/>
<path d="M3393 11010 c-107 -43 -150 -483 -72 -734 11 -37 29 -75 40 -84 10
-9 28 -25 38 -34 17 -15 20 -30 19 -110 -1 -103 15 -159 72 -248 82 -128 135
-51 205 295 69 342 73 590 12 765 -27 79 -67 120 -136 143 -57 18 -142 21
-178 7z"/>
<path d="M2620 10881 c-119 -39 -176 -125 -198 -301 -31 -240 -23 -416 23
-494 20 -35 29 -66 34 -130 12 -131 35 -152 136 -125 73 20 115 78 115 161 1
60 30 189 84 361 104 334 100 449 -17 508 -44 23 -137 33 -177 20z"/>
<path d="M2399 9516 c-62 -16 -124 -54 -186 -114 -63 -61 -67 -88 -27 -185 40
-97 42 -159 8 -237 -28 -63 -29 -69 -28 -235 0 -182 26 -409 84 -753 36 -208
54 -276 80 -302 26 -26 34 -25 71 8 35 31 49 82 74 257 14 107 47 428 60 590
11 135 35 284 67 420 29 119 32 145 32 300 1 229 -8 245 -134 258 -31 3 -75 0
-101 -7z"/>
<path d="M6155 6334 c-11 -2 -45 -9 -75 -15 -114 -22 -158 -72 -303 -340 -126
-234 -162 -286 -281 -404 -74 -73 -148 -132 -276 -219 -363 -248 -572 -416
-805 -650 -294 -294 -502 -588 -675 -950 -150 -313 -295 -757 -331 -1016 -17
-119 -18 -665 -1 -830 7 -63 25 -167 42 -230 128 -489 136 -527 150 -772 9
-163 21 -221 51 -244 63 -49 168 24 358 251 272 326 450 474 804 670 279 153
455 272 648 436 326 276 561 607 673 949 45 140 56 252 56 585 0 390 -24 709
-75 1000 -42 243 -57 401 -62 675 -6 310 -1 356 63 554 63 192 95 256 170 337
87 96 96 157 26 193 -29 15 -124 27 -157 20z m-131 -2710 c12 -30 6 -310 -9
-411 -36 -251 -135 -539 -234 -680 -22 -32 -63 -77 -91 -101 -28 -24 -75 -74
-105 -112 -61 -76 -173 -175 -345 -302 -158 -117 -239 -168 -409 -258 -80 -42
-199 -111 -264 -154 -246 -159 -307 -168 -307 -44 0 75 40 133 119 173 55 28
119 94 153 158 19 35 59 85 97 121 111 104 163 159 189 201 66 104 258 317
329 364 42 28 54 31 123 31 88 0 95 5 159 99 47 68 92 109 129 116 124 24 158
44 224 131 97 127 154 285 168 469 9 119 11 132 32 188 11 30 33 36 42 11z"/>
</g>
</svg>
