<?xml version="1.0" standalone="no"?>
<!DOCTYPE svg PUBLIC "-//W3C//DTD SVG 20010904//EN"
 "http://www.w3.org/TR/2001/REC-SVG-20010904/DTD/svg10.dtd">
<svg version="1.0" xmlns="http://www.w3.org/2000/svg"
 width="1280.000000pt" height="1245.000000pt" viewBox="0 0 1280.000000 1245.000000"
 preserveAspectRatio="xMidYMid meet">
<metadata>
Created by potrace 1.15, written by Peter Selinger 2001-2017
</metadata>
<g transform="translate(0.000000,1245.000000) scale(0.100000,-0.100000)"
fill="#000000" stroke="none">
<path d="M7646 12434 c-19 -18 -19 -20 -6 -44 5 -10 23 -21 39 -25 38 -8 65
-39 161 -184 99 -149 169 -281 288 -541 114 -249 202 -424 291 -580 39 -68 70
-125 68 -126 -1 -1 -56 20 -122 47 -178 74 -271 96 -490 114 -404 33 -483 30
-750 -30 -211 -48 -491 -152 -531 -198 -11 -13 -58 -38 -105 -55 -169 -61
-175 -66 -164 -109 5 -22 10 -24 38 -20 18 2 77 21 131 41 84 31 104 35 129
26 17 -5 67 -10 111 -10 150 0 400 -21 546 -46 231 -39 218 -30 115 -79 -50
-23 -125 -67 -168 -98 -122 -88 -311 -253 -338 -294 -13 -20 -64 -71 -113
-112 -49 -42 -98 -88 -109 -103 -24 -32 -17 -74 15 -84 17 -5 28 2 55 35 19
22 68 68 109 101 65 53 79 60 117 60 24 0 127 25 228 55 212 64 346 93 462
102 l82 5 -50 -32 c-27 -18 -90 -67 -140 -110 -49 -42 -142 -115 -205 -162
-267 -200 -469 -412 -707 -746 -134 -186 -152 -218 -163 -286 -6 -41 -19 -68
-43 -99 -96 -119 -145 -228 -117 -262 7 -9 24 -15 38 -13 20 2 28 13 41 53 25
75 145 245 173 245 10 0 64 42 119 93 348 317 605 490 972 651 152 67 160 72
180 104 13 23 20 25 73 23 33 -1 78 5 102 13 23 8 42 13 42 11 0 -2 -9 -25
-21 -52 -43 -97 -61 -162 -99 -358 -45 -224 -47 -263 -23 -349 14 -51 15 -71
5 -139 -13 -89 -7 -107 34 -107 16 0 27 8 33 23 10 25 24 122 24 165 0 15 9
40 22 57 12 16 46 75 75 130 29 55 76 134 105 175 112 158 284 348 305 335 4
-2 10 -37 13 -77 4 -40 16 -104 27 -143 11 -38 20 -90 20 -115 0 -186 187
-727 299 -867 14 -18 33 -61 41 -95 13 -56 18 -63 41 -66 45 -5 53 18 36 95
-14 61 -14 71 1 98 10 20 18 75 23 165 9 164 24 281 50 420 16 79 19 123 14
177 -6 65 -4 77 15 109 20 31 23 55 30 210 4 96 10 177 13 181 3 3 13 -21 22
-53 9 -33 30 -100 45 -149 64 -202 115 -445 126 -598 3 -45 12 -98 21 -118 15
-36 14 -39 -21 -117 -20 -44 -36 -86 -36 -94 0 -36 65 -54 77 -20 10 26 110
232 133 273 27 47 66 195 79 296 6 43 19 105 31 138 32 91 44 231 33 360 -5
61 -9 112 -7 113 12 16 108 -59 291 -229 38 -35 79 -63 103 -70 38 -11 39 -13
24 -30 -9 -10 -13 -23 -8 -31 14 -23 58 -71 99 -107 197 -176 348 -342 490
-536 48 -66 99 -128 115 -138 30 -19 53 -66 70 -145 11 -49 31 -82 49 -82 4 0
16 6 26 14 18 13 18 18 6 82 -7 38 -21 87 -31 110 -13 30 -15 46 -7 59 6 11 7
49 3 96 -4 45 -3 79 2 79 20 0 68 -48 220 -217 429 -480 623 -716 882 -1078
195 -272 542 -809 613 -951 l35 -70 -34 -28 c-20 -15 -40 -38 -46 -51 -6 -13
-25 -29 -42 -37 -17 -7 -50 -30 -74 -52 -24 -22 -54 -41 -67 -42 -24 -3 -25 0
-25 55 0 73 -25 111 -74 111 -24 0 -41 10 -71 40 -48 49 -91 65 -131 50 -37
-14 -69 -45 -83 -78 -10 -24 -16 -27 -61 -26 -41 1 -56 7 -92 38 -23 20 -62
42 -85 48 -35 8 -44 16 -53 43 -25 76 -82 117 -161 117 -73 -1 -122 -18 -171
-61 -43 -38 -47 -40 -93 -33 l-49 7 58 52 c71 63 150 106 236 128 52 14 86 16
170 10 58 -4 131 -8 162 -9 46 -1 62 -6 85 -27 77 -73 177 -140 202 -137 21 2
26 8 26 33 0 25 -12 39 -83 93 -45 35 -114 101 -152 147 -90 108 -176 184
-352 312 -542 395 -908 581 -1510 768 -263 82 -416 120 -544 135 -55 6 -164
25 -244 42 -164 34 -340 47 -636 48 -522 1 -1104 -109 -1484 -281 -48 -21
-131 -55 -183 -74 -173 -62 -444 -207 -678 -360 -491 -324 -930 -724 -1370
-1250 -165 -197 -188 -230 -195 -277 -5 -27 -33 -62 -130 -163 -68 -71 -127
-138 -130 -148 -6 -20 -28 -20 -2216 -15 -2341 6 -2238 7 -2238 -36 0 -40 -72
-39 2718 -47 1478 -4 2861 -8 3075 -8 214 -1 387 -5 387 -10 0 -5 -44 -19 -97
-31 -213 -49 -463 -137 -608 -213 -76 -41 -171 -128 -185 -172 -21 -64 21
-120 122 -164 56 -25 168 -43 533 -86 517 -60 673 -86 855 -141 220 -67 264
-129 136 -192 -106 -52 -245 -85 -791 -187 -719 -135 -1109 -243 -1406 -390
-222 -109 -297 -193 -268 -298 18 -66 32 -78 330 -274 20 -13 45 -39 55 -58
18 -34 18 -36 -1 -71 -87 -162 -395 -279 -1060 -404 -675 -126 -1013 -214
-1375 -357 -531 -210 -940 -505 -1031 -743 -24 -64 -24 -152 0 -205 59 -129
276 -226 581 -260 255 -28 527 -35 1410 -35 1262 0 1716 -21 2340 -106 605
-83 1170 -238 1537 -423 203 -102 404 -268 419 -346 17 -92 -78 -175 -286
-249 -41 -15 -86 -34 -99 -43 -18 -12 -46 -15 -107 -14 -94 2 -124 -8 -124
-44 0 -36 28 -45 139 -45 89 0 102 2 128 23 15 13 64 36 108 51 265 92 375
230 305 384 -50 110 -242 257 -494 377 -542 260 -1292 421 -2246 485 -365 24
-662 30 -1508 30 -854 0 -1155 6 -1447 31 -370 30 -595 138 -595 284 0 173
334 467 753 665 416 196 810 309 1612 460 423 80 715 159 868 236 155 78 267
197 267 284 0 76 -50 131 -220 239 -145 92 -180 125 -180 165 0 61 89 128 288
216 278 125 621 219 1202 330 681 130 810 160 921 211 89 41 129 85 129 140 0
107 -92 169 -345 234 -167 43 -299 63 -800 124 -225 28 -435 58 -465 67 -63
19 -110 49 -110 70 0 8 19 33 42 55 86 83 376 203 657 271 135 32 172 47 193
76 10 15 32 20 98 26 289 22 483 25 1310 20 l895 -6 21 -67 c12 -36 47 -149
78 -251 31 -102 90 -295 131 -430 41 -135 98 -321 126 -415 29 -93 58 -180 66
-192 13 -20 10 -28 -47 -110 -33 -48 -76 -107 -95 -131 -19 -24 -38 -60 -41
-81 -10 -62 -75 -93 -284 -137 -122 -26 -154 -29 -335 -29 -110 0 -232 4 -271
8 l-70 9 -28 -40 c-15 -22 -34 -61 -41 -87 -13 -41 -13 -49 1 -70 27 -42 74
-55 231 -66 151 -10 410 -43 420 -52 7 -7 -9 -28 -454 -625 -204 -274 -375
-510 -378 -524 -4 -15 -2 -36 5 -48 15 -28 68 -60 100 -60 28 0 80 48 143 134
20 26 55 68 78 93 l41 45 43 -16 c23 -9 87 -27 141 -41 351 -85 1013 -325
1111 -403 l21 -17 -54 -89 c-59 -97 -70 -149 -36 -179 28 -25 101 -48 120 -38
10 5 44 51 76 103 33 51 207 316 387 589 180 273 332 506 338 518 9 17 16 19
30 12 10 -6 258 -74 552 -151 701 -186 824 -217 884 -225 28 -4 60 -13 72 -21
28 -17 58 -18 70 -1 5 6 18 39 28 71 33 110 8 133 -209 187 -86 21 -161 41
-165 43 -5 3 -11 32 -14 63 -2 32 -17 155 -31 273 -57 456 -68 586 -95 1132
-6 131 -11 172 -25 193 -18 27 -17 27 55 148 40 67 152 242 250 388 199 298
223 341 215 374 -7 28 -43 55 -104 78 -52 19 -67 15 -81 -23 -5 -16 -18 -33
-28 -38 -32 -16 -269 -27 -578 -26 -332 2 -463 14 -675 64 -191 44 -263 55
-288 41 -11 -6 -188 -234 -393 -507 -427 -567 -375 -526 -433 -339 -80 253
-276 903 -282 930 l-6 30 1334 -3 c733 -2 1574 -6 1868 -10 l534 -7 -67 -39
c-38 -22 -88 -63 -113 -90 -25 -28 -63 -70 -85 -93 -56 -61 -67 -88 -44 -113
10 -11 23 -20 30 -20 6 0 33 25 59 55 43 50 51 55 89 55 23 0 64 7 91 15 88
27 91 20 23 -47 -64 -63 -103 -123 -109 -169 -2 -13 -16 -50 -32 -81 -27 -56
-27 -57 -10 -90 9 -18 20 -40 24 -48 5 -10 20 -14 46 -13 22 2 86 3 144 4 91
1 108 4 128 22 27 25 29 72 5 86 -16 9 -16 11 -2 28 38 44 28 103 -17 103 -19
0 -29 -7 -36 -28 -18 -45 -120 -121 -173 -129 -25 -3 -45 -2 -45 3 2 38 84
100 229 174 56 28 61 33 61 64 0 44 -22 63 -55 48 -14 -7 -25 -16 -25 -21 0
-5 -29 -25 -65 -44 -36 -19 -65 -31 -65 -27 0 7 85 89 173 167 51 46 53 50 34
77 -19 26 -124 32 -207 13 -36 -9 -66 -14 -68 -12 -2 2 29 22 70 46 40 23 87
55 103 70 17 16 44 29 64 31 41 4 61 29 45 56 -9 13 -28 18 -88 20 -68 3 -76
5 -76 22 0 11 6 20 13 20 7 0 28 11 46 24 19 14 46 28 62 31 36 8 54 37 39 65
-13 24 -38 25 -85 6 -19 -8 -35 -12 -35 -8 0 4 29 38 65 76 36 37 65 74 65 81
0 6 -5 26 -11 44 -9 27 -16 32 -38 29 -15 -2 -30 -12 -36 -25 -6 -15 -18 -23
-36 -23 -44 0 -130 -30 -231 -81 -54 -27 -103 -49 -109 -49 -6 0 12 25 40 57
28 31 58 76 68 99 10 24 28 47 40 53 43 20 149 33 214 26 55 -5 70 -3 83 11
22 22 17 46 -14 61 -38 20 -183 15 -265 -8 -129 -36 -125 -37 -76 14 24 25 65
57 90 71 53 28 156 56 212 56 64 0 69 15 69 197 0 142 -2 162 -18 176 -10 10
-23 17 -29 17 -18 0 -36 -29 -43 -68 l-6 -37 -47 95 -46 95 25 26 c30 32 40
63 49 166 9 100 25 132 25 50 0 -70 12 -97 45 -97 33 0 45 27 45 99 0 69 -13
104 -48 127 -13 9 -37 45 -54 81 -85 188 -520 775 -853 1153 -156 177 -741
762 -885 886 -145 124 -155 131 -198 139 l-37 7 -160 320 c-183 366 -224 432
-343 558 -227 242 -489 380 -749 397 -51 3 -93 10 -93 14 0 4 18 23 40 40 57
46 407 414 438 461 l25 39 -22 29 c-22 30 -14 43 9 15 19 -23 27 -19 78 38
210 235 500 503 696 645 66 48 139 106 161 129 36 37 49 43 111 54 96 16 130
50 84 82 -18 13 -31 12 -98 0 -50 -10 -106 -13 -158 -10 -96 7 -169 -2 -359
-44 -250 -56 -421 -123 -687 -272 -316 -175 -397 -234 -558 -405 -89 -95 -99
-103 -104 -81 -23 121 -31 152 -53 204 -90 218 -362 475 -674 639 -57 29 -147
70 -199 91 -52 20 -128 49 -167 66 -40 16 -90 29 -110 29 -21 0 -60 11 -87 25
-57 29 -79 31 -100 9z m289 -150 c55 -22 65 -30 65 -51 0 -18 29 -52 111 -131
303 -291 534 -660 668 -1064 20 -59 41 -105 54 -115 21 -17 22 -26 22 -183 0
-139 3 -173 20 -218 10 -29 27 -60 37 -69 17 -15 24 -14 63 9 11 6 27 14 35
18 9 4 22 46 36 116 38 194 85 328 180 518 96 189 195 322 355 476 66 64 79
82 85 118 6 39 11 44 73 79 139 77 303 154 414 192 151 52 426 111 514 110 67
0 68 0 43 -17 -204 -141 -394 -304 -632 -544 -235 -237 -212 -229 -385 -140
-91 46 -116 55 -130 46 -10 -6 -19 -20 -21 -31 -4 -25 24 -46 124 -96 59 -30
75 -43 92 -78 l21 -43 -33 -40 c-18 -23 -127 -137 -242 -254 -115 -118 -213
-222 -218 -233 -5 -10 -13 -19 -17 -19 -5 0 -24 -14 -44 -31 -19 -17 -70 -50
-112 -73 -64 -34 -78 -45 -78 -65 0 -43 28 -49 90 -18 48 23 61 26 98 17 23
-5 81 -14 129 -20 281 -34 605 -225 872 -514 84 -91 106 -109 144 -119 l45
-12 100 -200 c55 -110 109 -216 119 -236 10 -20 30 -90 44 -155 28 -134 58
-235 84 -279 12 -21 19 -61 23 -133 3 -57 3 -101 0 -98 -3 3 -37 50 -77 105
-136 190 -346 419 -500 546 -36 30 -50 48 -51 70 -1 17 -6 43 -10 58 -5 18 1
69 16 142 19 95 21 116 10 129 -16 19 -45 21 -58 4 -6 -7 -20 -57 -32 -110
-12 -54 -26 -98 -31 -98 -5 0 -79 63 -166 140 -116 103 -167 143 -198 152 -56
16 -75 34 -103 96 -37 83 -84 152 -172 250 -77 85 -89 95 -216 162 -114 59
-139 69 -156 60 -14 -8 -19 -19 -17 -38 2 -22 17 -34 86 -70 49 -26 82 -50 82
-59 0 -9 17 -44 39 -77 88 -140 155 -298 192 -455 24 -99 49 -275 49 -347 0
-36 6 -59 20 -77 18 -23 19 -32 10 -104 -13 -94 -57 -265 -76 -290 -12 -16
-13 -13 -14 27 0 115 -66 436 -130 635 -15 50 -38 123 -50 163 -14 49 -32 85
-55 111 -23 25 -43 64 -59 117 -39 122 -92 248 -110 259 -19 12 -49 -4 -54
-28 -2 -9 20 -78 48 -153 57 -151 56 -147 46 -389 -8 -167 -21 -255 -38 -255
-6 0 -44 32 -85 71 -59 55 -80 70 -100 67 -14 -2 -31 -11 -37 -20 -9 -15 1
-29 59 -88 39 -39 86 -82 106 -96 52 -36 57 -91 24 -270 -23 -123 -34 -220
-51 -448 -3 -43 -10 -74 -14 -70 -5 5 -34 65 -65 134 -103 229 -168 444 -189
630 -12 103 -11 106 11 139 20 30 23 46 23 140 0 195 38 364 136 608 36 89 64
170 62 179 -5 25 -35 41 -54 29 -20 -13 -95 -188 -144 -335 -44 -132 -68 -246
-80 -369 -7 -69 -8 -53 -5 84 3 130 8 188 23 245 28 103 101 277 151 355 56
91 52 125 -14 125 -29 0 -31 2 -27 29 7 46 -21 55 -152 48 -61 -4 -148 -15
-193 -25 l-81 -18 -39 23 c-51 31 -167 67 -285 88 l-97 17 -15 43 c-13 38 -12
50 1 104 18 70 8 94 -36 89 -21 -3 -28 -12 -41 -59 -10 -31 -25 -70 -35 -87
-34 -57 -124 -69 -209 -27 -97 47 -490 101 -776 108 l-105 2 48 22 c89 41 302
111 418 137 206 46 342 59 497 47 206 -16 216 -18 227 -43 8 -18 43 -34 160
-73 186 -63 298 -115 426 -200 55 -36 108 -65 119 -65 22 0 43 32 34 54 -15
39 -301 203 -434 248 -36 12 -57 24 -48 26 21 4 391 -143 438 -174 19 -13 69
-68 110 -122 42 -53 84 -98 93 -100 23 -5 47 15 47 38 0 23 -128 188 -180 233
-22 19 -40 43 -40 53 0 11 -32 75 -71 144 -104 183 -212 397 -323 640 -111
244 -190 392 -276 520 -33 49 -60 92 -60 95 0 8 6 7 75 -21z m297 -125 c192
-96 345 -205 480 -341 137 -139 206 -263 234 -421 7 -43 20 -90 28 -104 12
-25 12 -33 -8 -78 -12 -27 -35 -87 -51 -133 -16 -45 -32 -79 -35 -75 -4 5 -24
58 -44 118 -43 129 -180 412 -261 540 -92 147 -223 312 -341 432 -61 62 -109
113 -107 113 2 0 49 -23 105 -51z m1210 -593 c-219 -228 -404 -588 -470 -915
-10 -53 -22 -89 -26 -82 -14 22 -19 235 -7 301 15 86 92 299 133 369 47 78
285 316 381 379 43 29 81 52 84 52 3 0 -39 -47 -95 -104z m-1632 -931 c0 -8
-15 -18 -37 -23 -21 -5 -85 -21 -143 -34 -88 -21 -166 -48 -305 -103 -50 -20
7 17 85 54 47 23 101 50 121 61 24 13 55 18 100 18 67 0 144 16 154 32 9 15
25 12 25 -5z m215 -91 c93 -19 169 -44 158 -54 -13 -11 -189 -80 -273 -106
-59 -19 -97 -24 -183 -24 -171 0 -292 -23 -591 -115 -82 -25 -151 -44 -153
-41 -2 2 27 30 66 62 64 54 73 59 123 60 42 1 70 10 138 47 108 58 251 107
410 142 69 15 134 33 145 40 21 15 37 13 160 -11z m1505 6 c130 -21 269 -78
404 -168 81 -53 250 -212 311 -292 42 -55 95 -141 95 -154 0 -4 -31 28 -69 71
-245 278 -638 502 -928 530 -34 3 -60 10 -57 14 7 12 165 11 244 -1z m-871
-64 c-2 -2 -53 -14 -114 -26 -255 -51 -490 -132 -736 -256 -61 -30 -113 -54
-115 -52 -2 2 26 21 62 42 37 21 69 47 74 60 6 17 24 27 70 40 35 10 124 42
199 71 149 58 214 77 361 105 85 16 210 26 199 16z m-9 -188 c-27 -57 -63
-146 -81 -199 l-31 -95 -51 -11 c-125 -25 -262 -66 -394 -118 -193 -75 -218
-73 -225 14 -3 51 -26 73 -55 55 -13 -8 -21 -34 -29 -85 -5 -41 -15 -82 -20
-92 -6 -10 -64 -42 -130 -71 -362 -158 -689 -373 -967 -636 -54 -51 -100 -90
-103 -88 -6 7 96 161 204 305 212 284 407 480 662 664 91 66 112 77 156 81 36
3 86 23 180 70 258 131 506 224 724 272 63 13 124 27 135 29 11 3 32 5 47 6
l27 1 -49 -102z m763 -240 c31 -40 69 -100 84 -133 16 -33 35 -71 43 -85 10
-18 14 -78 16 -225 2 -159 1 -188 -7 -140 -52 310 -92 444 -197 648 -13 25 14
-3 61 -65z m-893 -207 c0 -96 -7 -116 -47 -130 -91 -33 -352 -356 -459 -568
-48 -95 -54 -77 -24 80 27 146 25 140 64 161 24 13 49 44 87 109 61 105 141
207 222 286 31 30 59 67 62 82 6 29 20 36 68 38 27 1 27 0 27 -58z m-265 -53
c-37 -40 -99 -120 -137 -178 -78 -115 -82 -105 -17 47 21 51 39 104 39 117 0
14 7 26 18 29 9 3 49 17 87 31 39 14 72 25 73 26 2 0 -26 -32 -63 -72z m2579
-584 c56 -47 64 -58 56 -74 -5 -10 -10 -52 -10 -92 0 -121 -29 -129 -71 -20
-17 48 -58 209 -59 235 0 17 23 4 84 -49z m259 -232 c16 -17 17 -24 7 -43 -8
-14 -10 -43 -7 -77 3 -30 2 -65 -3 -77 -9 -23 -12 -21 -82 48 -66 65 -72 74
-61 92 8 11 13 52 13 98 l0 79 58 -50 c31 -27 65 -59 75 -70z m218 -229 c-2
-10 -6 -57 -10 -105 -3 -48 -11 -92 -17 -98 -8 -8 -30 12 -80 67 l-70 78 23
40 c21 34 23 49 19 104 l-5 63 72 -65 c49 -45 71 -71 68 -84z m154 -135 c50
-55 64 -78 60 -93 -3 -11 -10 -62 -14 -113 -4 -51 -12 -97 -18 -103 -11 -11
-149 144 -146 164 1 7 12 39 24 72 14 40 19 74 16 103 -2 23 -1 42 3 42 5 0
38 -33 75 -72z m279 -323 c-4 -11 -10 -61 -14 -112 -6 -85 -21 -128 -41 -121
-4 2 -39 41 -77 87 l-70 83 25 47 c16 31 26 72 30 120 l6 73 73 -78 c56 -60
72 -84 68 -99z m154 -153 l70 -84 -14 -33 c-8 -19 -14 -57 -14 -84 0 -48 -31
-141 -47 -141 -4 1 -41 44 -81 96 l-73 96 25 23 c31 29 46 82 46 165 0 39 4
60 9 55 5 -6 41 -47 79 -93z m-2984 -12 c166 -9 235 -19 394 -55 12 -3 22 -12
22 -19 0 -34 57 -80 158 -127 516 -241 1023 -672 1315 -1116 68 -104 132 -213
124 -213 -2 0 -33 13 -68 29 -166 75 -324 105 -554 105 -247 0 -401 -35 -559
-128 -81 -47 -206 -166 -256 -244 l-34 -53 -31 159 c-55 274 -150 540 -277
767 -132 238 -287 452 -442 613 -80 83 -122 119 -275 241 -44 35 -44 36 -20
42 38 11 295 10 503 -1z m-594 -43 c9 -19 47 -56 95 -91 112 -83 327 -301 419
-426 114 -153 230 -346 307 -505 105 -219 161 -396 215 -674 14 -73 30 -131
40 -142 14 -16 15 -23 5 -45 l-12 -26 -62 59 c-152 145 -406 240 -653 244
-222 4 -373 -26 -528 -102 -180 -90 -365 -252 -525 -461 -45 -60 -86 -108 -89
-108 -4 0 -7 35 -8 78 0 42 -8 138 -17 212 -65 529 89 1241 392 1815 32 61 62
125 66 143 3 17 10 32 13 33 4 0 54 6 112 14 58 7 130 13 160 14 53 1 56 -1
70 -32z m-440 -23 c0 -4 -34 -73 -75 -154 -132 -262 -230 -525 -299 -808 -94
-382 -119 -726 -76 -1067 11 -87 18 -161 16 -163 -2 -2 -34 17 -70 42 -143 98
-282 147 -468 168 -303 32 -601 -69 -834 -284 -24 -22 -44 -39 -44 -36 0 20
53 291 70 358 153 598 501 1181 927 1553 86 75 106 98 120 138 17 48 19 50
103 85 105 44 267 93 425 129 66 15 134 31 150 35 39 10 55 12 55 4z m1775
-45 c105 -22 398 -110 600 -179 332 -115 649 -271 945 -464 131 -86 350 -242
435 -310 58 -46 185 -168 185 -177 0 -3 -19 -3 -42 2 -72 14 -239 10 -302 -6
-144 -38 -300 -151 -392 -285 -26 -39 -53 -69 -58 -67 -6 2 -14 29 -17 59 -5
45 -19 77 -75 169 -292 486 -788 931 -1352 1213 -84 42 -152 78 -152 79 0 6
123 -12 225 -34z m2459 -140 c57 -72 76 -104 71 -117 -4 -9 -11 -51 -15 -92
-8 -78 -36 -190 -48 -189 -4 0 -47 57 -95 125 l-88 125 22 23 c32 33 59 113
59 174 0 28 3 52 8 52 4 -1 42 -46 86 -101z m-5129 -131 c-107 -93 -257 -250
-347 -362 -326 -405 -586 -980 -664 -1466 -9 -58 -20 -108 -24 -113 -3 -4 -33
16 -65 44 -83 73 -148 113 -238 149 -125 50 -244 72 -382 73 -139 0 -238 -18
-369 -69 -49 -19 -91 -32 -93 -30 -9 9 22 52 154 209 560 670 1127 1149 1757
1482 115 61 304 143 331 144 6 0 -21 -27 -60 -61z m5391 -220 l76 -108 -21
-43 c-15 -31 -21 -63 -21 -110 0 -66 -17 -128 -39 -141 -6 -4 -50 53 -105 136
-87 129 -94 144 -80 159 23 25 64 168 64 224 l1 50 25 -30 c13 -16 58 -78 100
-137z m185 -274 c27 -43 56 -97 65 -121 15 -39 15 -45 0 -84 -9 -23 -21 -82
-25 -131 -13 -144 -23 -143 -115 2 -71 113 -75 122 -59 138 33 33 64 119 67
189 6 98 5 97 12 91 3 -4 28 -41 55 -84z m-2016 -619 c156 -25 285 -73 393
-147 l44 -30 -30 -28 c-42 -38 -62 -82 -70 -153 -7 -59 -8 -61 -39 -68 -17 -3
-47 -15 -67 -27 l-35 -21 -17 27 c-51 82 -117 122 -211 130 -60 4 -63 6 -73
37 -6 17 -26 47 -46 66 -32 31 -40 34 -99 34 -61 1 -65 2 -104 42 -70 73 -162
79 -223 16 -15 -16 -37 -57 -50 -93 -23 -64 -33 -74 -98 -100 -14 -6 -40 -21
-57 -34 -18 -13 -60 -29 -94 -35 -98 -17 -127 -54 -155 -195 l-17 -86 -46 0
c-62 -1 -120 -29 -163 -79 -27 -32 -45 -43 -74 -47 -60 -9 -94 -24 -152 -67
-57 -41 -88 -93 -77 -128 6 -19 2 -20 -76 -17 l-83 3 -93 295 c-131 415 -145
462 -135 472 14 14 262 -19 353 -48 122 -38 231 -98 309 -170 73 -67 116 -94
149 -94 23 0 45 31 112 160 63 122 191 249 309 308 188 94 438 120 715 77z
m1034 -29 c13 -14 23 -37 23 -57 1 -52 14 -69 53 -69 40 0 83 -15 107 -37 29
-26 6 -40 -55 -35 -65 5 -97 -9 -97 -43 0 -33 13 -38 96 -42 64 -2 76 1 118
27 61 39 86 44 129 26 34 -14 38 -13 62 5 15 12 25 31 25 45 0 63 54 87 86 39
20 -31 74 -65 103 -65 19 0 21 -6 21 -50 0 -39 -4 -52 -17 -56 -59 -20 -131
-62 -167 -99 -67 -69 -113 -132 -126 -171 -11 -32 -10 -38 8 -56 26 -27 49
-18 67 26 20 46 50 66 103 66 l44 0 -22 -27 c-50 -66 -72 -108 -82 -161 -6
-31 -19 -68 -28 -82 -29 -43 -32 -65 -11 -85 27 -24 46 -14 80 40 20 32 45 54
80 72 28 15 53 24 57 21 3 -3 -15 -36 -40 -72 -25 -36 -51 -84 -57 -106 l-12
-40 -267 0 -266 0 -12 33 c-7 18 -12 43 -12 55 0 32 -55 89 -105 108 -39 14
-45 21 -45 46 0 16 -7 42 -14 57 -15 29 -80 91 -95 91 -5 0 -11 29 -13 65 -3
57 -8 69 -38 100 -68 70 -154 81 -232 30 -51 -34 -68 -27 -68 27 0 70 17 115
56 144 30 23 37 25 52 13 9 -8 39 -25 65 -38 39 -20 52 -22 65 -13 10 6 30 19
45 28 27 15 30 14 54 -11 58 -57 136 -34 108 33 -4 9 -8 30 -9 46 -1 24 -7 31
-30 37 -34 9 -114 -4 -157 -26 -24 -13 -37 -14 -64 -5 -47 15 -50 24 -24 66
l22 37 98 -7 98 -7 44 40 c51 48 78 60 133 60 30 1 46 -5 63 -23z m-1451 -164
c15 -15 37 -40 49 -55 25 -29 46 -33 89 -16 40 14 71 4 89 -31 8 -16 15 -31
15 -34 0 -3 -33 -3 -72 0 -65 6 -75 4 -91 -14 -32 -35 -9 -58 64 -66 35 -3 70
-13 79 -21 23 -21 63 -19 77 4 14 23 68 32 119 21 53 -12 114 -80 137 -152 14
-44 23 -58 46 -68 17 -7 45 -35 65 -66 36 -54 52 -62 86 -44 14 8 24 3 49 -22
17 -18 31 -37 31 -44 0 -14 69 -74 85 -74 17 0 29 18 43 65 9 32 9 43 -4 62
-8 13 -22 23 -31 23 -13 0 -14 3 -5 12 21 21 15 67 -12 79 -13 6 -29 22 -35
35 -14 32 -66 32 -114 0 l-35 -24 -37 38 -37 37 35 22 c41 25 62 26 110 6 51
-21 89 -19 130 9 52 36 72 39 113 20 48 -23 60 -52 48 -113 -6 -27 -8 -53 -6
-60 2 -6 26 -21 52 -32 62 -27 82 -56 78 -117 -3 -44 -1 -47 32 -64 19 -9 44
-17 55 -18 35 -1 62 -32 68 -77 l5 -43 -1191 0 c-656 0 -1202 3 -1214 6 -34 9
-29 47 10 80 46 39 88 54 152 54 l55 0 25 50 c14 27 35 55 47 61 12 7 58 15
103 18 l80 6 26 123 c14 67 30 127 36 133 6 6 31 15 54 19 39 7 47 5 80 -21
41 -33 74 -37 107 -13 29 20 52 12 52 -19 0 -33 16 -44 73 -52 54 -8 80 5 76
39 -2 12 2 30 9 42 9 16 8 25 -4 42 -13 18 -22 21 -52 16 -28 -4 -49 0 -81 17
-41 21 -44 21 -77 5 -19 -9 -40 -16 -47 -16 -18 1 33 40 52 40 30 0 87 47 103
87 9 21 26 59 37 86 19 44 22 47 56 47 27 0 44 -7 63 -28z m2565 -6 c12 -9 17
-27 17 -59 l0 -45 -52 -7 c-45 -6 -109 -25 -170 -50 -12 -5 -18 -3 -18 6 0 14
35 39 93 68 15 8 27 18 27 22 0 14 61 79 74 79 6 0 19 -7 29 -14z m-4183 -61
c0 -8 38 -133 84 -277 93 -290 374 -1206 443 -1443 24 -82 58 -182 77 -220 38
-82 37 -92 -23 -149 -29 -28 -42 -35 -45 -25 -3 8 -59 192 -125 409 -66 217
-138 454 -160 525 -60 194 -143 468 -200 660 -28 94 -77 250 -110 347 -66 196
-66 185 17 187 31 1 42 -3 42 -14z m-106 -295 c47 -146 96 -303 109 -350 l24
-85 -20 -8 c-12 -4 -462 -6 -1001 -5 -802 2 -1005 0 -1110 -11 -118 -14 -133
-13 -176 2 -26 9 -77 17 -114 17 -39 0 -66 4 -66 10 0 15 123 128 194 178 172
122 334 172 557 172 249 0 418 -60 618 -221 41 -32 84 -59 95 -59 40 0 95 46
171 145 130 168 285 316 414 395 70 43 204 101 212 92 4 -4 46 -126 93 -272z
m3996 143 c0 -5 -18 -29 -40 -54 l-39 -46 -48 8 c-26 4 -67 8 -90 8 -24 1 -43
5 -43 11 0 12 70 48 125 66 44 14 135 18 135 7z m-134 -199 c-4 -15 -2 -32 5
-40 14 -17 51 -18 66 -3 6 6 16 10 22 8 6 -2 -2 -21 -20 -42 -30 -36 -32 -37
-83 -31 -34 4 -61 2 -75 -6 -13 -6 -25 -10 -27 -8 -6 6 99 147 110 148 4 0 5
-12 2 -26z m-6762 -63 c93 -26 188 -67 249 -110 63 -43 207 -180 207 -197 0
-12 -72 -14 -453 -14 -250 0 -570 3 -711 7 l-257 6 112 113 c95 95 119 114
152 120 22 3 69 18 106 33 56 24 122 43 216 65 11 3 83 3 160 2 104 -3 160 -9
219 -25z m7107 -145 c-26 -28 -61 -115 -61 -154 0 -15 -4 -31 -8 -37 -4 -6
-67 -8 -170 -5 l-162 5 20 40 c11 22 31 54 45 70 l25 30 -10 -29 c-13 -36 -5
-63 20 -71 26 -8 39 1 54 35 8 20 33 40 81 66 81 43 178 84 184 78 3 -2 -6
-15 -18 -28z m-2623 -538 c-48 -112 -108 -203 -190 -287 -102 -105 -159 -176
-315 -396 -66 -93 -153 -210 -193 -260 -82 -101 -108 -152 -117 -226 -6 -48
-10 -54 -90 -127 -47 -42 -103 -89 -125 -104 -75 -51 -91 -28 -32 44 20 23 68
90 107 148 38 58 91 128 118 155 26 28 55 67 64 88 9 21 23 41 31 44 9 3 183
229 387 501 204 272 373 490 375 484 2 -6 -7 -34 -20 -64z m191 48 c29 -8 55
-17 58 -20 6 -6 -31 -142 -69 -251 -74 -208 -250 -515 -428 -745 -95 -122
-271 -303 -380 -390 -179 -142 -366 -247 -600 -335 -153 -58 -176 -69 -191
-96 -8 -16 -17 -19 -37 -14 -92 23 -526 74 -636 75 -41 0 -50 14 -32 48 l16
31 118 -6 c77 -4 122 -10 133 -19 20 -18 43 -18 58 0 8 9 47 15 124 19 68 3
166 17 249 36 139 30 206 54 257 91 19 13 45 20 73 20 60 0 122 39 243 149 79
72 106 91 130 91 53 1 108 35 185 116 229 240 523 740 507 863 -3 30 7 58 59
157 34 67 66 138 69 158 8 41 14 43 94 22z m1457 -22 c-3 -7 -85 -133 -184
-281 -98 -147 -214 -326 -257 -398 -43 -71 -104 -164 -135 -206 -58 -76 -90
-129 -90 -149 0 -6 -37 -54 -81 -107 -78 -93 -355 -503 -694 -1030 -87 -136
-306 -471 -485 -743 -179 -272 -350 -532 -379 -577 -29 -46 -60 -83 -67 -83
-8 0 -14 2 -14 5 0 9 122 203 297 470 93 143 266 409 383 590 263 404 649 984
800 1200 61 88 213 318 337 510 125 193 279 429 344 526 65 96 121 188 125
205 7 33 72 94 92 87 7 -3 11 -11 8 -19z m-1233 -31 c16 -4 18 -12 12 -56 -16
-118 -119 -389 -226 -596 -127 -245 -280 -458 -476 -661 -191 -199 -364 -328
-615 -460 -73 -39 -140 -80 -149 -91 l-16 -21 -119 27 c-65 15 -130 30 -143
34 -19 6 -1 15 95 50 491 177 858 475 1181 958 106 158 186 302 250 450 49
114 123 335 123 369 0 15 23 14 83 -3z m286 -30 c11 -9 -24 -167 -61 -283
-139 -431 -372 -804 -718 -1150 -159 -159 -299 -274 -465 -381 -66 -42 -137
-92 -157 -109 l-38 -32 -69 21 c-38 12 -89 29 -112 40 l-44 18 75 38 c449 226
822 587 1104 1067 131 223 272 578 291 731 l7 56 92 -6 c50 -3 93 -7 95 -10z
m761 6 c0 -6 -49 -84 -108 -172 -60 -89 -210 -319 -334 -512 -125 -192 -281
-429 -348 -525 -67 -96 -251 -368 -408 -605 -156 -236 -288 -434 -293 -439 -4
-5 -42 8 -86 31 -43 22 -105 50 -138 63 -33 13 -63 26 -67 29 -4 4 58 61 139
126 539 438 928 986 1226 1730 31 77 59 158 62 180 14 91 8 85 88 86 39 1 97
4 127 9 86 11 140 11 140 -1z m-430 -37 c0 -45 -26 -120 -106 -308 -295 -693
-651 -1182 -1165 -1598 -74 -60 -143 -120 -155 -133 l-21 -24 -89 39 c-125 55
-144 64 -144 71 0 3 33 25 73 49 434 257 880 737 1115 1200 130 255 242 577
242 695 l0 37 125 0 125 0 0 -28z m-1176 -329 c-49 -113 -154 -304 -218 -400
-129 -193 -286 -370 -345 -388 -23 -7 -24 -6 -18 34 3 25 18 59 39 85 167 222
257 343 335 452 79 110 216 274 229 274 2 0 -8 -26 -22 -57z m1311 -804 c20
-394 61 -835 111 -1172 9 -59 14 -111 10 -114 -10 -10 -71 13 -68 25 1 7 -5
54 -12 105 -13 82 -36 281 -66 570 -20 196 -40 484 -40 577 0 76 -4 104 -20
135 -11 22 -20 44 -20 51 0 13 81 126 87 120 2 -2 10 -136 18 -297z m-145 -47
c0 -169 62 -838 106 -1154 5 -36 3 -48 -6 -48 -17 0 -284 70 -460 120 -74 21
-181 50 -237 64 -110 28 -153 44 -153 57 0 5 75 125 167 266 370 572 551 831
573 818 6 -4 10 -59 10 -123z m-2463 -661 c-4 -19 -72 -113 -342 -474 -83
-111 -178 -242 -212 -292 -34 -49 -89 -120 -122 -158 -33 -37 -84 -99 -112
-137 -29 -39 -59 -70 -66 -70 -7 0 -13 3 -13 6 0 7 553 753 689 928 51 66 105
142 120 168 16 30 33 48 45 48 13 0 17 -5 13 -19z m303 -50 c91 -22 195 -51
231 -65 36 -13 95 -32 130 -41 94 -24 109 -37 109 -89 0 -24 9 -73 20 -108 12
-34 38 -120 59 -189 l38 -127 -65 -33 c-74 -38 -93 -60 -76 -86 16 -25 49 -27
81 -6 47 32 81 43 168 52 99 12 115 19 177 79 34 33 51 43 59 35 7 -7 -43 -93
-177 -299 -103 -159 -190 -292 -194 -297 -3 -4 -94 30 -201 77 -296 128 -696
270 -1033 368 l-79 23 169 225 c267 356 353 475 364 504 7 21 15 25 32 21 13
-3 97 -23 188 -44z m638 -224 l72 -29 0 -46 c0 -27 16 -98 38 -166 l39 -118
-33 -14 c-70 -29 -79 -23 -108 74 -15 48 -42 136 -61 195 -35 109 -42 142 -27
135 4 -1 40 -16 80 -31z m300 -123 c61 -29 112 -58 112 -64 0 -6 -14 -31 -31
-56 -26 -39 -32 -43 -51 -33 -18 10 -34 9 -102 -3 -15 -2 -23 12 -47 87 -16
50 -29 100 -29 112 0 27 -3 28 148 -43z m452 6 c11 -6 93 -30 182 -54 90 -24
233 -63 318 -86 85 -24 328 -87 540 -140 359 -91 385 -99 388 -120 4 -22 2
-23 -60 -16 -34 3 -121 22 -193 40 -301 78 -1240 328 -1243 331 -6 6 30 55 40
55 5 0 18 -5 28 -10z m-2015 -489 c369 -106 1125 -394 1125 -429 0 -4 -6 -16
-13 -26 -13 -18 -15 -17 -53 8 -134 88 -776 319 -1133 406 -62 16 -117 32
-122 37 -13 13 20 55 39 49 10 -3 80 -23 157 -45z"/>
<path d="M11480 6415 c-10 -12 -9 -30 4 -88 18 -82 38 -117 65 -117 26 0 44
26 38 52 -4 13 -13 51 -21 85 -7 34 -17 66 -20 72 -10 16 -52 13 -66 -4z"/>
<path d="M11717 6169 c-22 -17 -30 -18 -49 -8 -19 10 -25 8 -45 -15 -13 -15
-23 -34 -23 -43 0 -11 -7 -14 -27 -10 -37 7 -63 -9 -63 -38 0 -30 26 -45 77
-45 22 0 44 -5 50 -11 22 -22 62 -3 79 39 1 1 33 4 72 5 40 2 77 9 86 16 30
25 13 71 -26 71 -10 0 -18 6 -18 14 0 19 -39 46 -66 46 -12 0 -33 -9 -47 -21z"/>
<path d="M10172 6058 c-7 -7 -12 -22 -12 -35 0 -20 -3 -21 -26 -13 -39 15 -72
12 -92 -8 -14 -14 -25 -16 -42 -10 -29 11 -56 2 -64 -19 -7 -18 55 -118 79
-127 14 -5 85 19 95 33 3 3 15 11 27 18 17 10 24 9 33 -2 17 -20 34 -19 55 4
9 11 33 21 54 23 29 2 37 7 39 26 4 27 -23 62 -47 62 -9 0 -24 14 -33 30 -18
31 -45 39 -66 18z"/>
<path d="M10691 5847 c-6 -8 -21 -13 -31 -10 -49 13 -71 -60 -24 -77 69 -27
128 4 122 63 -2 26 -8 33 -29 35 -14 2 -31 -4 -38 -11z"/>
<path d="M10691 2385 c-80 -23 -136 -50 -206 -100 -159 -113 -237 -269 -239
-475 -1 -122 26 -211 94 -314 115 -172 270 -256 470 -256 379 1 645 245 644
590 -1 241 -168 459 -412 539 -88 28 -276 37 -351 16z m181 -73 c16 -7 16 -11
-7 -60 -13 -29 -30 -71 -36 -92 -7 -22 -14 -40 -17 -40 -2 0 -16 8 -30 19 -43
30 -124 68 -162 76 -69 15 -69 22 1 55 92 43 202 61 251 42z m198 -44 l45 -21
-40 -15 c-22 -9 -68 -30 -102 -48 l-63 -32 16 36 c9 21 23 54 32 75 18 43 27
44 112 5z m168 -115 c54 -57 91 -121 114 -196 27 -90 22 -224 -12 -312 l-23
-60 -18 52 c-50 149 -169 303 -295 384 -35 23 -64 43 -64 45 0 12 218 118 254
123 5 0 25 -16 44 -36z m-658 -14 c30 -6 68 -18 83 -26 l28 -14 -100 -95
c-104 -99 -161 -178 -201 -279 -13 -33 -27 -64 -31 -69 -13 -16 -29 68 -29
154 0 135 35 238 111 324 38 43 42 45 62 31 12 -8 47 -19 77 -26z m216 -113
c-3 -6 -21 -48 -41 -93 -71 -162 -111 -405 -86 -528 5 -29 6 -54 1 -59 -12
-12 -106 35 -159 80 -24 21 -61 60 -83 87 l-39 50 20 21 c11 12 35 58 54 103
36 86 56 118 120 195 54 66 183 169 203 161 8 -3 13 -11 10 -17z m150 -66
c113 -64 228 -212 274 -350 12 -36 28 -72 36 -81 12 -13 9 -20 -24 -51 -91
-88 -229 -144 -383 -155 l-89 -6 0 31 c0 17 -5 54 -11 82 -13 62 2 223 32 331
24 88 88 229 103 229 6 0 34 -13 62 -30z"/>
</g>
</svg>
